#!OML:ASF H:\charlestonDancing\Project 1\Capture day 1\Session 1\femaleDancer.ASF
:FULLY-SPECIFIED
:DEGREES
70
root -16.249 17.9221 0.249166 414.278 -92.5173 -404.121
lowerback 18.0136 2.32992 2.27541
upperback 3.18896 3.09382 -2.64607
thorax -6.36715 1.3559 -4.83383
lowerneck -2.47547 2.20163 4.05696
upperneck 3.97012 2.88758 -2.93388
head 1.7822 1.43714 -1.5548
rclavicle 8.3738e-015 -9.0944e-015
rhumerus -31.2721 -13.8226 -67.1223
rradius 35.8751
rwrist 37.2537
rhand -36.4762 -55.0379
rfingers 7.12502
rthumb -9.56931 275.199
lclavicle 8.3738e-015 -9.0944e-015
lhumerus -48.5156 31.0711 36.0036
lradius 27.4078
lwrist -22.212
lhand -35.9415 15.97
lfingers 7.12502
lthumb -9.05334 45.7557
rfemur -19.8045 -1.58568 28.595
rtibia 41.9047
rfoot -11.9412 -9.58582
rtoes -6.10801
lfemur -40.3391 -8.6732 -18.1164
ltibia 40.2896
lfoot 14.7739 -16.0281
ltoes -5.84492
71
root -16.3846 17.9411 0.251746 398.213 -93.151 -387.402
lowerback 17.2895 2.82274 2.20712
upperback 2.90226 3.72813 -2.81177
thorax -6.21613 1.67368 -5.07788
lowerneck -2.41257 2.06546 3.97554
upperneck 4.57866 2.69985 -2.62199
head 1.95285 1.34944 -1.44573
rclavicle 4.59068e-014 -2.92213e-014
rhumerus -31.5534 -15.2988 -66.8928
rradius 35.3923
rwrist 35.3027
rhand -36.542 -57.0625
rfingers 7.12502
rthumb -9.6328 273.178
lclavicle 4.59068e-014 -2.92213e-014
lhumerus -50.6282 33.6111 31.7318
lradius 25.2637
lwrist -21.5971
lhand -36.9387 18.0482
lfingers 7.12502
lthumb -10.0155 47.7899
rfemur -19.7352 -6.20595 30.4907
rtibia 40.8531
rfoot -12.5 -12.4511
rtoes -3.39476
lfemur -40.2544 -5.88851 -19.701
ltibia 39.4185
lfoot 14.6409 -12.8291
ltoes 3.50277
72
root -16.5228 17.9209 0.261679 394.525 -93.8183 -383.203
lowerback 16.3715 3.1449 1.91825
upperback 2.71086 4.09358 -3.04107
thorax -5.89097 1.87005 -5.17883
lowerneck -2.48384 2.03674 3.85473
upperneck 5.34734 2.64773 -2.2877
head 2.20585 1.32914 -1.31875
rclavicle -8.57259e-015 7.35503e-015
rhumerus -31.4314 -16.3797 -66.98
rradius 34.9024
rwrist 34.597
rhand -34.8402 -57.6168
rfingers 7.12502
rthumb -7.99058 272.554
lclavicle -8.57259e-015 7.35503e-015
lhumerus -51.8553 33.9801 29.956
lradius 23.9859
lwrist -16.3897
lhand -37.1408 19.6942
lfingers 7.12502
lthumb -10.2105 49.4264
rfemur -19.5615 -10.4163 31.5749
rtibia 39.7151
rfoot -13.8595 -14.0923
rtoes -4.45294
lfemur -39.574 -3.65486 -21.5318
ltibia 39.4085
lfoot 10.1767 -10.2375
ltoes 1.03124
73
root -16.6628 17.873 0.273638 395.196 -94.3774 -383.656
lowerback 15.6176 3.30399 1.47247
upperback 2.55269 4.21949 -3.2856
thorax -5.65171 1.94755 -5.16371
lowerneck -2.66271 2.10287 3.72634
upperneck 6.22971 2.71388 -1.95607
head 2.52334 1.36778 -1.18704
rclavicle -5.11871e-015 3.30976e-014
rhumerus -31.1388 -16.6182 -67.4528
rradius 34.6554
rwrist 34.8196
rhand -35.5485 -53.5317
rfingers 7.12502
rthumb -8.67407 276.666
lclavicle -5.11871e-015 3.30976e-014
lhumerus -52.8192 33.4118 29.31
lradius 23.4583
lwrist -8.86506
lhand -35.8105 20.0734
lfingers 7.12502
lthumb -8.9269 49.8645
rfemur -18.7585 -12.9368 31.6111
rtibia 38.4012
rfoot -15.4442 -13.9928
rtoes -4.6658
lfemur -38.6999 -2.30422 -23.2554
ltibia 39.8471
lfoot 4.88156 -12.4535
ltoes -15.8809
74
root -16.8033 17.8159 0.286806 391.265 -94.6637 -379.891
lowerback 15.566 3.37844 1.45202
upperback 2.17608 4.31654 -3.39442
thorax -6.00948 1.9855 -5.30477
lowerneck -2.51899 2.17181 3.69177
upperneck 7.10543 2.78556 -1.6743
head 2.78607 1.41071 -1.08885
rclavicle -4.78077e-014 5.62561e-014
rhumerus -31.354 -15.8836 -68.0427
rradius 34.8728
rwrist 35.7225
rhand -35.3532 -49.9397
rfingers 7.12502
rthumb -8.48566 280.251
lclavicle -4.78077e-014 5.62561e-014
lhumerus -54.1688 32.3633 28.6763
lradius 23.6071
lwrist -2.37869
lhand -32.8347 19.1568
lfingers 7.12502
lthumb -6.05459 49.0503
rfemur -17.1817 -13.2148 31.2899
rtibia 37.0562
rfoot -16.2247 -13.0975
rtoes -9.57733
lfemur -37.9084 -2.09666 -23.866
ltibia 40.5976
lfoot -0.726678 -12.7984
ltoes -34.558
75
root -16.9364 17.7534 0.301381 378.373 -94.7229 -367.511
lowerback 15.6336 3.41105 2.25415
upperback 2.0658 4.51279 -3.25494
thorax -6.09308 2.06506 -5.65908
lowerneck -2.48885 2.19997 3.83462
upperneck 7.74647 2.81121 -1.70081
head 3.00263 1.42618 -1.12236
rclavicle -5.58585e-014 1.78906e-014
rhumerus -31.4269 -14.7435 -68.7632
rradius 35.5828
rwrist 37.5013
rhand -34.4658 -46.9943
rfingers 7.12502
rthumb -7.62922 283.163
lclavicle -5.58585e-014 1.78906e-014
lhumerus -55.2963 31.5552 28.2753
lradius 23.885
lwrist 0.844672
lhand -29.4923 17.6172
lfingers 7.12502
lthumb -2.82711 47.5782
rfemur -15.0592 -11.7643 31.1657
rtibia 36.1418
rfoot -17.7533 -11.0117
rtoes -10.4462
lfemur -37.382 -3.63281 -22.4257
ltibia 41.1955
lfoot -0.614726 -10.8189
ltoes -12.85
